<svg id="Capa_1" data-name="Capa 1" xmlns="http://www.w3.org/2000/svg" viewBox="0 0 1343 790"><defs><style>.cls-1{fill:none;stroke:#1b6889;stroke-miterlimit:10;stroke-width:2.8px;}.cls-2{fill:#1b6889;}</style></defs><circle class="cls-1" cx="408.68" cy="277.26" r="50.46"/><circle class="cls-1" cx="540.09" cy="277.26" r="50.46"/><circle class="cls-1" cx="671.5" cy="277.26" r="50.46"/><circle class="cls-1" cx="934.32" cy="277.26" r="50.46"/><circle class="cls-1" cx="802.91" cy="277.26" r="50.46"/><circle class="cls-2" cx="408.68" cy="159.51" r="50.46"/><circle class="cls-1" cx="540.09" cy="159.51" r="50.46"/><circle class="cls-1" cx="671.5" cy="159.51" r="50.46"/><circle class="cls-1" cx="934.32" cy="159.51" r="50.46"/><circle class="cls-1" cx="802.91" cy="159.51" r="50.46"/><circle class="cls-1" cx="408.68" cy="512.74" r="50.46"/><circle class="cls-1" cx="540.09" cy="512.74" r="50.46"/><circle class="cls-1" cx="671.5" cy="512.74" r="50.46"/><circle class="cls-1" cx="934.32" cy="512.74" r="50.46"/><circle class="cls-1" cx="802.91" cy="512.74" r="50.46"/><circle class="cls-1" cx="408.68" cy="395" r="50.46"/><circle class="cls-1" cx="540.09" cy="395" r="50.46"/><circle class="cls-1" cx="671.5" cy="395" r="50.46"/><circle class="cls-1" cx="934.32" cy="395" r="50.46"/><circle class="cls-1" cx="802.91" cy="395" r="50.46"/><circle class="cls-1" cx="408.68" cy="630.49" r="50.46"/><circle class="cls-1" cx="540.09" cy="630.49" r="50.46"/><circle class="cls-1" cx="671.5" cy="630.49" r="50.46"/><circle class="cls-1" cx="934.32" cy="630.49" r="50.46"/><circle class="cls-1" cx="802.91" cy="630.49" r="50.46"/></svg>