<svg id="Capa_1" data-name="Capa 1" xmlns="http://www.w3.org/2000/svg" viewBox="0 0 1343 790"><defs><style>.cls-1{font-size:29.01px;font-family:MyriadPro-Regular, Myriad Pro;}.cls-2{letter-spacing:0em;}.cls-3{letter-spacing:-0.01em;}.cls-4{letter-spacing:-0.01em;}.cls-5{letter-spacing:-0.01em;}.cls-6{letter-spacing:0em;}.cls-7{letter-spacing:-0.01em;}.cls-8{letter-spacing:-0.01em;}.cls-10,.cls-9{fill:#1b6889;}.cls-10{opacity:0.36;}</style></defs><text class="cls-1" transform="translate(414.85 246.66)">a<tspan class="cls-2" x="13.98" y="0">n</tspan><tspan class="cls-3" x="29.97" y="0">t</tspan><tspan x="39.4" y="0">es de fumigar</tspan></text><text class="cls-1" transform="translate(414.85 297.43)">después de fumigar</text><text class="cls-1" transform="translate(364.08 157.8)"><tspan class="cls-4">C</tspan><tspan x="16.51" y="0">on</tspan><tspan class="cls-5" x="48.54" y="0">c</tspan><tspan x="61.36" y="0">e</tspan><tspan class="cls-6" x="75.9" y="0">n</tspan><tspan x="91.88" y="0">t</tspan><tspan class="cls-7" x="101.49" y="0">r</tspan><tspan x="110.83" y="0">ación de </tspan><tspan x="0" y="34.82">CH3Br en san</tspan><tspan class="cls-3" x="160.35" y="34.82">g</tspan><tspan class="cls-8" x="176.4" y="34.82">r</tspan><tspan x="185.59" y="34.82">e</tspan></text><rect class="cls-9" x="523.51" y="363.17" width="544" height="61.65" transform="translate(401.51 1189.51) rotate(-90)"/><rect class="cls-10" x="579.72" y="511.87" width="241.17" height="61.65" transform="translate(157.62 1243) rotate(-90)"/><rect class="cls-10" x="365.11" y="219.65" width="36.27" height="36.81" transform="translate(145.19 621.3) rotate(-90)"/><rect class="cls-9" x="365.11" y="272.24" width="36.27" height="36.81" transform="translate(92.61 673.89) rotate(-90)"/></svg>